# xmcd CD database file
#
# Track frame offsets:
#	187
#	25375
#	52622
#	84180
#	122512
#
# Disc length: 2212 seconds
#
# Revision: 0
# Processed by: cddbd v1.5.2PL0 Copyright (c) Steve Scherf et al.
# Submitted via: CDex 1.51
#
DISCID=2b08a205
DTITLE=Eric Kloss - To Hear Is To See
DYEAR=1969
DGENRE=Jazz
TTITLE0=To Hear Is To See
TTITLE1=The Kingdom Within
TTITLE2=Stone Groove
TTITLE3=Children Of The Morning
TTITLE4=Cynara
EXTD=YEAR: 1969
EXTT0=
EXTT1=
EXTT2=
EXTT3=
EXTT4=
PLAYORDER=
